<?xml version="1.0" encoding="UTF-8" standalone="no"?>
<!DOCTYPE svg PUBLIC "-//W3C//DTD SVG 1.1//EN" "http://www.w3.org/Graphics/SVG/1.1/DTD/svg11.dtd">
<!-- Created with Vectornator (http://vectornator.io/) -->
<svg height="100%" stroke-miterlimit="10" style="fill-rule:nonzero;clip-rule:evenodd;stroke-linecap:round;stroke-linejoin:round;" version="1.1" viewBox="0 0 512 512" width="100%" xml:space="preserve" xmlns="http://www.w3.org/2000/svg" xmlns:vectornator="http://vectornator.io" xmlns:xlink="http://www.w3.org/1999/xlink">
<defs/>
<g id="Layer-1" vectornator:layerName="Layer 1">
<g opacity="1">
<path d="M115.333 166.875L149.958 316.25L191.458 166.875L218.458 166.875L259.958 316.25L294.583 166.875L321.833 166.875L273.583 350.5L247.458 350.5L205.083 198.25L162.458 350.5L136.333 350.5L88.3331 166.875L115.333 166.875Z" fill="#f5891d" opacity="1" stroke="none"/>
<g fill="#f5891d" opacity="1" stroke="none">
<path d="M381.504 334.085C384.754 334.114 387.326 332.949 389.222 330.59C391.118 328.231 392.08 325.427 392.108 322.177C392.142 318.219 391.259 314.378 389.458 310.654C386.471 304.378 381.519 301.209 374.603 301.149L365.541 301.07C366.404 302.453 367.117 304.23 367.682 306.401C368.246 308.573 368.644 310.702 368.876 312.787L369.692 319.607C370.198 323.695 371.025 326.765 372.174 328.816C374.102 332.292 377.212 334.048 381.504 334.085ZM358.992 306.638C358.681 304.052 357.613 302.314 355.787 301.423C354.792 300.914 353.356 300.651 351.481 300.635C347.648 300.602 344.855 301.942 343.102 304.656C341.349 307.37 340.451 311.269 340.407 316.352C340.355 322.227 341.902 326.407 345.048 328.893C346.786 330.283 349.382 331.201 352.836 331.648L352.745 342.148C344.497 341.868 338.781 339.141 335.597 333.967C332.413 328.793 330.85 322.81 330.909 316.019C330.978 308.144 332.533 301.762 335.576 296.871C338.618 292.023 343.306 289.626 349.639 289.681L388.2 290.017C389.367 290.027 390.306 289.796 391.019 289.323C391.731 288.85 392.094 287.843 392.108 286.301C392.112 285.801 392.086 285.238 392.029 284.613C391.972 283.987 391.884 283.32 391.765 282.61L400.077 282.683C400.562 284.437 400.863 285.773 400.98 286.691C401.097 287.608 401.148 288.859 401.135 290.442C401.101 294.317 399.701 297.118 396.936 298.844C395.47 299.747 393.402 300.375 390.732 300.727C393.712 303.045 396.287 306.359 398.458 310.67C400.629 314.98 401.692 319.719 401.647 324.886C401.593 331.094 399.664 336.15 395.859 340.054C392.054 343.959 387.318 345.887 381.651 345.837C375.443 345.783 370.648 343.804 367.265 339.899C363.882 335.995 361.822 330.893 361.086 324.595L358.992 306.638Z"/>
<path d="M332.928 270.785L333.021 260.098L344.583 260.199C342.341 259.304 339.62 257.134 336.421 253.69C333.222 250.245 331.641 246.294 331.68 241.835C331.682 241.627 331.706 241.273 331.752 240.774C331.798 240.274 331.889 239.421 332.024 238.213L343.899 238.317C343.768 238.982 343.679 239.596 343.633 240.158C343.586 240.72 343.56 241.335 343.554 242.001C343.505 247.668 345.29 252.038 348.909 255.111C352.528 258.184 356.713 259.742 361.463 259.783L399.961 260.118L399.863 271.368L332.928 270.785Z"/>
<path d="M308.103 229.13L308.198 218.193L341.509 218.483C338.322 215.997 335.9 213.038 334.242 209.607C332.585 206.175 331.773 202.46 331.808 198.46C331.881 190.127 334.804 183.392 340.578 178.254C346.352 173.117 354.823 170.597 365.989 170.694C376.572 170.786 385.341 173.425 392.296 178.611C399.251 183.797 402.689 190.931 402.61 200.014C402.565 205.097 401.299 209.378 398.81 212.857C397.334 214.927 394.981 217.136 391.752 219.483L400.314 219.557L400.224 229.932L308.103 229.13ZM392.667 200.615C392.72 194.532 390.343 189.959 385.536 186.896C380.729 183.833 374.367 182.268 366.451 182.199C359.41 182.137 353.563 183.597 348.912 186.577C344.261 189.558 341.91 193.985 341.859 199.86C341.814 204.985 343.671 209.491 347.429 213.378C351.187 217.265 357.42 219.246 366.128 219.322C372.419 219.377 377.53 218.63 381.46 217.081C388.861 214.187 392.596 208.698 392.667 200.615Z"/>
</g>
</g>
</g>
</svg>
